<svg class="svg-icon" style="width: 1em;height: 1em;vertical-align: middle;fill: currentColor;overflow: hidden;" viewBox="0 0 1024 1024" version="1.1" xmlns="http://www.w3.org/2000/svg"><path d="M745.828174 200.347826a100.329739 100.329739 0 0 0 100.218435-100.173913c0-55.229217-44.966957-100.173913-100.218435-100.173913a100.329739 100.329739 0 0 0-100.218435 100.173913c0 55.229217 44.966957 100.173913 100.218435 100.173913z m0-155.826087a55.741217 55.741217 0 0 1 55.674435 55.652174c0 30.697739-24.976696 55.652174-55.674435 55.652174a55.718957 55.718957 0 0 1-55.674435-55.652174c0-30.675478 24.976696-55.652174 55.674435-55.652174z m148.947478 312.05287a22.28313 22.28313 0 0 1-8.392348 43.720348c-5.409391-1.024-133.231304-26.178783-191.176347-96.790261a22.26087 22.26087 0 1 1 34.437565-28.226783c47.816348 58.278957 163.951304 81.074087 165.13113 81.296696zM178.020174 638.530783a22.483478 22.483478 0 0 1 23.418435-21.036522c8.347826 0.378435 205.868522 9.104696 236.833391-138.551652a22.238609 22.238609 0 1 1 43.564522 9.126956c-29.117217 138.99687-178.42087 174.32487-266.351305 174.32487-5.765565 0-11.264-0.178087-16.450782-0.445218a22.26087 22.26087 0 0 1-21.014261-23.418434zM801.502609 801.391304H222.519652A111.460174 111.460174 0 0 0 111.170783 912.695652c0 61.373217 49.953391 111.304348 111.348869 111.304348h578.982957a111.460174 111.460174 0 0 0 111.348869-111.304348c0-61.373217-49.953391-111.304348-111.348869-111.304348z m0 178.086957H222.519652a66.871652 66.871652 0 0 1-66.804869-66.782609c0-36.819478 29.96313-66.782609 66.804869-66.782609h578.982957a66.871652 66.871652 0 0 1 66.804869 66.782609c0 36.819478-29.96313 66.782609-66.804869 66.782609zM248.386783 212.502261a22.26087 22.26087 0 0 1 6.500174-30.809044C322.649043 137.572174 502.361043 91.113739 630.116174 177.664a22.26087 22.26087 0 0 1 4.452174 32.879304c-61.284174 71.835826-89.33287 124.838957-83.366957 157.562435 4.87513 26.846609 34.593391 43.230609 68.964174 62.19687 42.518261 23.462957 90.735304 50.042435 103.691131 106.340174 13.200696 57.321739-14.046609 131.361391-85.74887 233.049043a22.216348 22.216348 0 0 1-31.031652 5.36487 22.26087 22.26087 0 0 1-5.36487-31.009392c62.130087-88.108522 88.620522-154.534957 78.736696-197.409391-8.503652-36.908522-44.098783-56.56487-81.808696-77.356522-40.603826-22.394435-82.587826-45.568-91.269565-93.206261-8.102957-44.588522 15.582609-98.882783 76.510609-174.213565-107.698087-56.097391-251.035826-17.808696-304.662261 17.14087a22.26087 22.26087 0 0 1-30.831304-6.500174zM267.063652 912.695652a44.521739 44.521739 0 1 1-89.043478 0 44.521739 44.521739 0 0 1 89.043478 0z m578.982957 0a44.521739 44.521739 0 1 1-89.043479 0 44.521739 44.521739 0 0 1 89.043479 0z" fill="#231F1F" /></svg>