<svg class="svg-icon" style="width: 1.0009765625em; height: 1em;vertical-align: middle;fill: currentColor;overflow: hidden;" viewBox="0 0 1025 1024" version="1.1" xmlns="http://www.w3.org/2000/svg"><path d="M961.619024 789.778l62.38 51.52-70.91 84.845-60.48-49.945-54.295 67.91c-30.89 38.65-72.105 31.825-95.66 12.35-23.595-19.46-21.055-44.57 9.855-83.18l54.275-67.97-17.455-14.42-76.01 95.125c-38.14 47.785-88.21 68.885-135.19 30.105-46.97-38.79-39.08-94.72-0.915-142.47l75.99-95.14L312.983024 397.524l-76.012 95.125c-38.165 47.745-90.367 67.115-137.342 28.33-46.977-38.782-37.975-93.822 0.19-141.587l75.99-95.125-16.532-13.655-52.545 65.772c-30.87 38.655-60.265 52.372-83.84 32.895-23.552-19.455-34.985-66.88-4.117-105.535l52.545-65.772L13.143024 149.91l70.932-84.842 56.277 46.462 36.032-45.097c30.867-38.635 76.97-34.602 100.542-15.125 23.575 19.477 18.282 49.13-12.585 87.785l-36.032 45.12 16.555 13.655 57.642-72.13c38.165-47.765 90.175-69.075 137.15-30.27 46.977 38.805 38.187 95.785 0.022 143.53l-57.665 72.15 340.289 280.982 57.62-72.13c38.165-47.765 91.225-68.202 138.22-29.397 46.975 38.787 36.075 94.057-2.095 141.782l-57.66 72.17 17.41 14.355 39.485-49.385c30.89-38.655 57.855-50.435 81.405-30.935 23.555 19.46 35.31 63.19 4.42 101.805L961.619024 789.778z"  /></svg>